<svg xmlns="http://www.w3.org/2000/svg" width="232" height="74.998" viewBox="0 0 232 74.998">
  <g id="Grupo_6" data-name="Grupo 6" transform="translate(-50 -27.501)">
    <g id="Grupo_1" data-name="Grupo 1" transform="translate(333.98 -147.949)">
      <path id="Trazado_1" data-name="Trazado 1" d="M-235.234,241.711a18.273,18.273,0,0,1-4.842,12.519c-.089.094-.178.183-.268.276A14.224,14.224,0,0,1-250,258.893c-.294.009-.593.009-.883,0h-.049a31.722,31.722,0,0,1-23.276-11.039A39.6,39.6,0,0,1-283.98,221.4a39.6,39.6,0,0,1,9.772-26.451,35.415,35.415,0,0,1,4.5-4.253c-.085.2-.169.392-.25.588s-.165.4-.241.6c-.067.16-.129.325-.183.49-.1.254-.183.513-.267.771-.067.2-.125.388-.183.588s-.12.415-.178.624c-.067.245-.129.495-.192.749-.04.165-.076.33-.111.495a.713.713,0,0,1-.022.094c-.04.205-.08.41-.12.62-.022.111-.04.227-.058.343-.058.3-.1.6-.143.909-.027.192-.049.383-.071.575s-.04.383-.058.58c-.013.143-.027.285-.036.432s-.018.268-.027.4c-.018.276-.027.557-.036.834,0,.232-.009.468-.009.7,0,12.92,9.621,23.432,21.448,23.432C-242.055,224.525-235.234,232.233-235.234,241.711Z" transform="translate(0 -8.451)" fill="#13162a"/>
      <path id="Trazado_2" data-name="Trazado 2" d="M-194.118,212.953a39.623,39.623,0,0,1-9.768,26.451,35.7,35.7,0,0,1-4.5,4.249c.174-.388.339-.785.49-1.19.08-.2.156-.406.227-.611s.143-.41.21-.615c0-.013.009-.022.013-.036.129-.4.25-.794.357-1.2.076-.267.143-.539.205-.811.036-.147.071-.29.1-.437,0-.031.013-.067.022-.1.04-.205.085-.41.12-.62.022-.111.04-.227.058-.343.054-.3.1-.6.143-.909.027-.192.049-.383.071-.575s.04-.388.058-.58c.013-.147.027-.294.036-.441.009-.125.018-.25.027-.379.018-.281.027-.562.036-.843,0-.232.009-.468.009-.7,0-12.92-9.621-23.428-21.448-23.428-8.386,0-15.207-7.713-15.207-17.191a18.273,18.273,0,0,1,4.842-12.519c.089-.094.178-.187.267-.276a14.94,14.94,0,0,1,2.006-1.721c.406-.29.82-.562,1.248-.811h0c.379-.218.762-.419,1.155-.6a12.843,12.843,0,0,1,1.2-.49,13.713,13.713,0,0,1,1.886-.517c.214-.045.428-.08.646-.111.125-.022.25-.036.374-.049.366-.045.736-.071,1.11-.085h.022c.143,0,.294-.009.441-.009s.312,0,.49.009A31.709,31.709,0,0,1-203.891,186.5,39.6,39.6,0,0,1-194.118,212.953Z" transform="translate(-22.788)" fill="#13162a"/>
    </g>
    <text id="SUFEE" transform="translate(147 85)" fill="#13162a" font-size="55" font-family="Futura-CondensedExtraBold, Futura" font-weight="800"><tspan x="0" y="0">SUFEE</tspan></text>
  </g>
</svg>
