<svg xmlns="http://www.w3.org/2000/svg" width="139.935" height="44" viewBox="0 0 139.935 44">
  <g id="Grupo_43" data-name="Grupo 43" transform="translate(-40.065 -4407)">
    <g id="Grupo_12" data-name="Grupo 12" transform="translate(40.065 4408.159)">
      <path id="Trazado_1" data-name="Trazado 1" d="M-256.447,219.512a10.321,10.321,0,0,1-2.735,7.071l-.151.156a8.034,8.034,0,0,1-5.454,2.478c-.166.005-.335.005-.5,0h-.028a17.917,17.917,0,0,1-13.147-6.235,22.369,22.369,0,0,1-5.52-14.94,22.369,22.369,0,0,1,5.52-14.94,20,20,0,0,1,2.543-2.4c-.048.111-.1.222-.141.332s-.093.224-.136.34c-.038.091-.073.184-.1.277-.055.144-.1.29-.151.436-.038.111-.071.219-.1.332s-.068.234-.1.353c-.038.138-.073.28-.108.423-.023.093-.043.186-.063.28a.4.4,0,0,1-.013.053c-.023.116-.045.232-.068.35-.013.063-.023.128-.033.194-.033.169-.058.34-.081.514-.015.108-.028.217-.04.325s-.023.217-.033.327c-.008.081-.015.161-.02.244s-.01.151-.015.224c-.01.156-.015.315-.02.471,0,.131-.005.264-.005.4,0,7.3,5.434,13.235,12.114,13.235C-260.3,209.8-256.447,214.158-256.447,219.512Z" transform="translate(283.98 -186.86)" fill="#f8f2ee"/>
      <path id="Trazado_2" data-name="Trazado 2" d="M-215.33,196.632a22.38,22.38,0,0,1-5.517,14.94,20.163,20.163,0,0,1-2.543,2.4c.1-.219.191-.443.277-.672.045-.113.088-.229.128-.345s.081-.232.118-.348l.008-.02c.073-.224.141-.448.2-.677.043-.151.081-.3.116-.458.02-.083.04-.164.058-.247,0-.018.008-.038.013-.058.023-.116.048-.232.068-.35.013-.063.023-.128.033-.194.03-.169.058-.34.081-.514.015-.108.028-.217.04-.325s.023-.219.033-.327c.008-.083.015-.166.02-.249s.01-.141.015-.214c.01-.159.015-.317.02-.476,0-.131.005-.264.005-.4,0-7.3-5.434-13.232-12.114-13.232-4.736,0-8.589-4.356-8.589-9.71a10.321,10.321,0,0,1,2.735-7.071c.05-.053.1-.106.151-.156a8.441,8.441,0,0,1,1.133-.972c.229-.164.463-.317.705-.458h0c.214-.123.431-.237.652-.34a7.254,7.254,0,0,1,.68-.277,7.743,7.743,0,0,1,1.065-.292c.121-.025.242-.045.365-.063.071-.013.141-.02.212-.028.206-.025.415-.04.627-.048h.013c.081,0,.166-.005.249-.005s.176,0,.277.005a17.909,17.909,0,0,1,13.144,6.237A22.365,22.365,0,0,1-215.33,196.632Z" transform="translate(253.214 -175.45)" fill="#f8f2ee"/>
    </g>
    <text id="SUFEE" transform="translate(94 4442)" fill="#f8f2ee" font-size="35" font-family="Futura-CondensedExtraBold, Futura" font-weight="800"><tspan x="0" y="0">SUFEE</tspan></text>
  </g>
</svg>
