<svg xmlns="http://www.w3.org/2000/svg" width="156.713" height="165" viewBox="0 0 156.713 165">
  <path id="Sustracción_2" data-name="Sustracción 2" d="M-3895.6,201a81.8,81.8,0,0,1-32.075-6.483,82.4,82.4,0,0,1-14-7.607,83,83,0,0,1-12.2-10.074,83.045,83.045,0,0,1-10.062-12.21,82.57,82.57,0,0,1-7.6-14.014A82.084,82.084,0,0,1-3978,118.5a82.085,82.085,0,0,1,6.475-32.113,82.571,82.571,0,0,1,7.6-14.014,83.039,83.039,0,0,1,10.062-12.21,83.012,83.012,0,0,1,12.2-10.074,82.408,82.408,0,0,1,14-7.606A81.8,81.8,0,0,1-3895.6,36c2.7,0,5.422.132,8.094.393a82.122,82.122,0,0,0-5.991,17.106,83,83,0,0,0-2.1,18.594,82.2,82.2,0,0,0,5.745,30.326,82.234,82.234,0,0,0,15.768,25.263,82.135,82.135,0,0,0,52.8,26.519,82.677,82.677,0,0,1-29.865,33.782A82.044,82.044,0,0,1-3895.6,201Z" transform="translate(3978 -36)" fill="#13162a"/>
</svg>
