<svg xmlns="http://www.w3.org/2000/svg" width="1206.879" height="602" viewBox="0 0 1206.879 602">
  <g id="Grupo_34" data-name="Grupo 34" transform="translate(-180.689 -2705)">
    <g id="Grupo_22" data-name="Grupo 22" transform="translate(-58.934 -145)">
      <g id="Rectángulo_13" data-name="Rectángulo 13" transform="translate(1022.001 2948.522)" fill="#f8f2ee" stroke="#13162a" stroke-width="10">
        <rect width="142.963" height="57.238" rx="23" stroke="none"/>
        <rect x="5" y="5" width="132.963" height="47.238" rx="18" fill="none"/>
      </g>
      <g id="Rectángulo_14" data-name="Rectángulo 14" transform="translate(1022.001 2901.243)" fill="#d44438" stroke="#13162a" stroke-width="10">
        <rect width="142.963" height="57.238" rx="23" stroke="none"/>
        <rect x="5" y="5" width="132.963" height="47.238" rx="18" fill="none"/>
      </g>
      <g id="Rectángulo_15" data-name="Rectángulo 15" transform="translate(1022.001 2901.243)" fill="#d44438" stroke="#13162a" stroke-width="10">
        <rect width="142.963" height="57.238" rx="23" stroke="none"/>
        <rect x="5" y="5" width="132.963" height="47.238" rx="18" fill="none"/>
      </g>
      <g id="Rectángulo_16" data-name="Rectángulo 16" transform="translate(1022.001 2855.089)" fill="#f8f2ee" stroke="#13162a" stroke-width="10">
        <rect width="142.963" height="57.238" rx="23" stroke="none"/>
        <rect x="5" y="5" width="132.963" height="47.238" rx="18" fill="none"/>
      </g>
    </g>
    <g id="Grupo_20" data-name="Grupo 20" transform="translate(-68.932 364)">
      <g id="Rectángulo_8" data-name="Rectángulo 8" transform="translate(511 2368)" fill="#d44438" stroke="#13162a" stroke-width="8">
        <rect width="105" height="105" rx="35" stroke="none"/>
        <rect x="4" y="4" width="97" height="97" rx="31" fill="none"/>
      </g>
      <path id="Trazado_6" data-name="Trazado 6" d="M553.782,2365.743v-23.76" transform="translate(9.718 4.106)" fill="none" stroke="#14172b" stroke-linecap="round" stroke-width="10"/>
      <path id="Trazado_12" data-name="Trazado 12" d="M553.782,2365.743v-23.76" transform="translate(2981.743 1866.718) rotate(90)" fill="none" stroke="#14172b" stroke-linecap="round" stroke-width="10"/>
      <path id="Trazado_15" data-name="Trazado 15" d="M553.782,2365.743v-23.76" transform="translate(2852.983 1866.718) rotate(90)" fill="none" stroke="#14172b" stroke-linecap="round" stroke-width="10"/>
      <path id="Trazado_9" data-name="Trazado 9" d="M553.782,2365.743v-23.76" transform="translate(9.718 131.017)" fill="none" stroke="#14172b" stroke-linecap="round" stroke-width="10"/>
      <path id="Trazado_7" data-name="Trazado 7" d="M553.782,2365.743v-23.76" transform="translate(29.718 4.106)" fill="none" stroke="#14172b" stroke-linecap="round" stroke-width="10"/>
      <path id="Trazado_13" data-name="Trazado 13" d="M553.782,2365.743v-23.76" transform="translate(2981.743 1886.718) rotate(90)" fill="none" stroke="#14172b" stroke-linecap="round" stroke-width="10"/>
      <path id="Trazado_16" data-name="Trazado 16" d="M553.782,2365.743v-23.76" transform="translate(2852.983 1886.718) rotate(90)" fill="none" stroke="#14172b" stroke-linecap="round" stroke-width="10"/>
      <path id="Trazado_10" data-name="Trazado 10" d="M553.782,2365.743v-23.76" transform="translate(29.718 131.017)" fill="none" stroke="#14172b" stroke-linecap="round" stroke-width="10"/>
      <path id="Trazado_8" data-name="Trazado 8" d="M553.782,2365.743v-23.76" transform="translate(-10.282 4.106)" fill="none" stroke="#14172b" stroke-linecap="round" stroke-width="10"/>
      <path id="Trazado_14" data-name="Trazado 14" d="M553.782,2365.743v-23.76" transform="translate(2981.743 1846.718) rotate(90)" fill="none" stroke="#14172b" stroke-linecap="round" stroke-width="10"/>
      <path id="Trazado_17" data-name="Trazado 17" d="M553.782,2365.743v-23.76" transform="translate(2852.983 1846.718) rotate(90)" fill="none" stroke="#14172b" stroke-linecap="round" stroke-width="10"/>
      <path id="Trazado_11" data-name="Trazado 11" d="M553.782,2365.743v-23.76" transform="translate(-10.282 131.017)" fill="none" stroke="#14172b" stroke-linecap="round" stroke-width="10"/>
    </g>
    <g id="Grupo_25" data-name="Grupo 25" transform="translate(1.689 299)">
      <g id="Rectángulo_9" data-name="Rectángulo 9" transform="translate(200.379 2433)" fill="#d44438" stroke="#13162a" stroke-width="8">
        <rect width="105" height="105" rx="35" stroke="none"/>
        <rect x="4" y="4" width="97" height="97" rx="31" fill="none"/>
      </g>
      <g id="Elipse_9" data-name="Elipse 9" transform="translate(233.379 2466)" fill="#fff" stroke="#141629" stroke-width="8">
        <circle cx="20" cy="20" r="20" stroke="none"/>
        <circle cx="20" cy="20" r="16" fill="none"/>
      </g>
    </g>
    <g id="Grupo_21" data-name="Grupo 21" transform="translate(-463.478 179)">
      <g id="Rectángulo_11" data-name="Rectángulo 11" transform="translate(1159.546 2574.206)" fill="#d44438" stroke="#13162a" stroke-width="10">
        <rect width="141.759" height="92.843" rx="23" stroke="none"/>
        <rect x="5" y="5" width="131.759" height="82.843" rx="18" fill="none"/>
      </g>
      <g id="Rectángulo_12" data-name="Rectángulo 12" transform="translate(1159.546 2631.129)" fill="#f8f2ee" stroke="#13162a" stroke-width="10">
        <rect width="141.759" height="50.631" rx="23" stroke="none"/>
        <rect x="5" y="5" width="131.759" height="40.631" rx="18" fill="none"/>
      </g>
      <g id="Elipse_11" data-name="Elipse 11" transform="translate(1253.574 2526)" fill="#fff" stroke="#141629" stroke-width="8">
        <circle cx="14.876" cy="14.876" r="14.876" stroke="none"/>
        <circle cx="14.876" cy="14.876" r="10.876" fill="none"/>
      </g>
      <path id="Trazado_20" data-name="Trazado 20" d="M553.782,2362.774v-20.791" transform="translate(634.6 211.432)" fill="none" stroke="#14172b" stroke-linecap="round" stroke-width="10"/>
      <path id="Trazado_21" data-name="Trazado 21" d="M553.782,2362.774v-20.791" transform="translate(714.23 211.432)" fill="none" stroke="#14172b" stroke-linecap="round" stroke-width="10"/>
      <path id="Trazado_22" data-name="Trazado 22" d="M1192.5,2616.716h87.236l-45.663,30.541" transform="translate(-4.117 -13.96)" fill="none" stroke="#141629" stroke-linecap="round" stroke-linejoin="round" stroke-width="10"/>
    </g>
    <g id="Grupo_23" data-name="Grupo 23" transform="translate(-33.932 365)">
      <g id="Elipse_12" data-name="Elipse 12" transform="translate(1300 2341)" fill="#f8f2ee" stroke="#141629" stroke-width="10">
        <circle cx="35" cy="35" r="35" stroke="none"/>
        <circle cx="35" cy="35" r="30" fill="none"/>
      </g>
      <g id="Sustracción_1" data-name="Sustracción 1" transform="translate(1223 2428)" fill="#d44438">
        <path d="M 176.8456878662109 66.00030517578125 L 47.15470123291016 66.00030517578125 C 47.35358428955078 63.07558822631836 47.74400329589844 60.17140579223633 48.32246398925781 57.32245635986328 C 49.17685699462891 53.11452102661133 50.45172500610352 48.97554397583008 52.11164093017578 45.02047729492188 C 53.74159622192383 41.13680648803711 55.75916290283203 37.39082717895508 58.10829162597656 33.8866081237793 C 60.43550872802734 30.4150447845459 63.10813903808594 27.15056610107422 66.05196380615234 24.18387031555176 C 68.9951171875 21.2177619934082 72.23324584960938 18.52519607543945 75.67646789550781 16.1808910369873 C 79.15057373046875 13.81556606292725 82.86400604248047 11.78421783447266 86.71361541748047 10.1433048248291 C 90.63246917724609 8.472869873046875 94.73342132568359 7.189935207366943 98.90259552001953 6.330174446105957 C 103.1826171875 5.447544097900391 107.5892944335938 5.000000476837158 112.0002059936523 5.000000476837158 C 116.4111175537109 5.000000476837158 120.8177947998047 5.447544097900391 125.0977935791016 6.330174446105957 C 129.2669830322266 7.189935207366943 133.3679504394531 8.472869873046875 137.2867736816406 10.1433048248291 C 141.1363525390625 11.78419589996338 144.8497924804688 13.81554412841797 148.3239593505859 16.1809139251709 C 151.7671356201172 18.52519607543945 155.0052947998047 21.2177619934082 157.9484405517578 24.1838264465332 C 160.8922882080078 27.15056610107422 163.5649261474609 30.4150447845459 165.8921203613281 33.88658905029297 C 168.2412414550781 37.39082717895508 170.2588195800781 41.13682556152344 171.8887939453125 45.02050018310547 C 173.5486602783203 48.97545623779297 174.8235321044922 53.11443710327148 175.6779479980469 57.32245635986328 C 176.2564086914062 60.17137908935547 176.6468200683594 63.07557678222656 176.8456878662109 66.00030517578125 Z" stroke="none"/>
        <path d="M 171.2597961425781 61.00032043457031 C 171.1190643310547 60.10089874267578 170.9583892822266 59.20618438720703 170.7779388427734 58.31737518310547 C 169.98876953125 54.43067932128906 168.8113555908203 50.60801315307617 167.2783508300781 46.95542907714844 C 165.7728271484375 43.36823654174805 163.9091339111328 39.907958984375 161.7389831542969 36.67073440551758 C 159.5886840820312 33.46309661865234 157.1192321777344 30.44681930541992 154.3992156982422 27.70562553405762 C 151.6804962158203 24.96573638916016 148.6897430419922 22.47879219055176 145.510009765625 20.31390190124512 C 142.3038787841797 18.13101387023926 138.8775482177734 16.25665283203125 135.3261871337891 14.74287509918213 C 131.7128295898438 13.20265293121338 127.9317398071289 12.01979160308838 124.0879592895508 11.22712516784668 C 116.190788269043 9.598567962646484 107.8096313476562 9.598567962646484 99.91246032714844 11.22712516784668 C 96.06867980957031 12.01979160308838 92.28759765625 13.20265293121338 88.67420959472656 14.7429027557373 C 85.12287902832031 16.25665283203125 81.69654083251953 18.13101387023926 78.49037933349609 20.31393051147461 C 75.31068420410156 22.47879219055176 72.31993103027344 24.96573638916016 69.60118103027344 27.70565223693848 C 66.88117980957031 30.44681930541992 64.41173553466797 33.46309661865234 62.26143264770508 36.67073440551758 C 60.09129333496094 39.907958984375 58.22760009765625 43.36823654174805 56.72207260131836 46.95545959472656 C 55.18907165527344 50.60809707641602 54.01162719726562 54.43078994750977 53.22248840332031 58.31737518310547 C 53.04231643676758 59.2047119140625 52.88187408447266 60.09800338745117 52.74130630493164 61.00032043457031 L 171.2597961425781 61.00032043457031 M 181.9986877441406 71.00032043457031 L 42.00173950195312 71.00032043457031 L 42.00032043457031 70.54482269287109 C 42.00032043457031 65.75843048095703 42.47879409790039 60.97504043579102 43.42246246337891 56.3275146484375 C 44.34212875366211 51.79815292358398 45.71443176269531 47.34290313720703 47.50123977661133 43.08551406860352 C 49.25557327270508 38.90545654296875 51.4269905090332 34.87376403808594 53.95515441894531 31.10245895385742 C 56.45926666259766 27.36704063415527 59.3350715637207 23.85437393188477 62.50276565551758 20.66204071044922 C 65.67043304443359 17.46970748901367 69.15596008300781 14.57148551940918 72.86251831054688 12.04790306091309 C 76.60471343994141 9.500041007995605 80.60526275634766 7.311736106872559 84.75304412841797 5.543735980987549 C 88.97754669189453 3.743013620376587 93.39837646484375 2.360041379928589 97.89273834228516 1.433208107948303 C 107.1160202026367 -0.4687904417514801 116.8844375610352 -0.4687932729721069 126.1076583862305 1.433208107948303 C 130.60205078125 2.360041379928589 135.0228729248047 3.743013620376587 139.2473754882812 5.543735980987549 C 143.3951568603516 7.311736106872559 147.3957061767578 9.500041007995605 151.1379089355469 12.04790306091309 C 154.8444671630859 14.57148551940918 158.3299865722656 17.46970748901367 161.4976501464844 20.66204071044922 C 164.6653442382812 23.85437393188477 167.5411529541016 27.36704063415527 170.0452728271484 31.10245895385742 C 172.5734405517578 34.87376403808594 174.7448425292969 38.90545654296875 176.4991760253906 43.08551406860352 C 178.2860107421875 47.34290313720703 179.6582946777344 51.79815292358398 180.5779571533203 56.3275146484375 C 181.5216064453125 60.97507095336914 182.0000762939453 65.75846099853516 182.0000762939453 70.54482269287109 C 182.0000762939453 70.69670867919922 181.9996337890625 70.84773254394531 181.9986877441406 70.99940490722656 L 181.9986877441406 71.00032043457031 Z" stroke="none" fill="#141629"/>
      </g>
    </g>
    <text id="SENSOR" transform="translate(180.689 2958)" fill="#13162a" font-size="45" font-family="Futura-CondensedExtraBold, Futura" font-weight="800"><tspan x="0" y="0">SENSOR</tspan></text>
    <text id="NODEMCU" transform="translate(396.689 2958)" fill="#13162a" font-size="45" font-family="Futura-CondensedExtraBold, Futura" font-weight="800"><tspan x="0" y="0">NODEMCU</tspan></text>
    <text id="WI-FI" transform="translate(718.689 2958)" fill="#13162a" font-size="45" font-family="Futura-CondensedExtraBold, Futura" font-weight="800"><tspan x="0" y="0">WI-FI</tspan></text>
    <text id="IA" transform="translate(849.852 3169.5)" fill="#d44438" font-size="110" font-family="Futura-CondensedExtraBold, Futura" font-weight="800"><tspan x="0" y="0">IA</tspan></text>
    <text id="SERVER" transform="translate(963.689 2958)" fill="#13162a" font-size="45" font-family="Futura-CondensedExtraBold, Futura" font-weight="800"><tspan x="0" y="0">SERVER</tspan></text>
    <text id="MAQUINA_DE_CAFE" data-name="MAQUINA
DE CAFE" transform="translate(1206 3253)" fill="#13162a" font-size="35" font-family="Futura-CondensedExtraBold, Futura" font-weight="800"><tspan x="-75.016" y="0">MAQUINA</tspan><tspan x="-59.413" y="45">DE CAFE</tspan></text>
    <text id="INTELIGENCIA_ARTIFICIAL" data-name="INTELIGENCIA
ARTIFICIAL" transform="translate(900 3253)" fill="#13162a" font-size="35" font-family="Futura-CondensedExtraBold, Futura" font-weight="800"><tspan x="-100.198" y="0">INTELIGENCIA</tspan><tspan x="-79.34" y="45">ARTIFICIAL</tspan></text>
    <text id="USUARIO" transform="translate(1214.568 2958)" fill="#13162a" font-size="45" font-family="Futura-CondensedExtraBold, Futura" font-weight="800"><tspan x="0" y="0">USUARIO</tspan></text>
    <g id="Grupo_26" data-name="Grupo 26" transform="translate(1129.779 2371.262)">
      <path id="Trazado_23" data-name="Trazado 23" d="M-198.764,417.612a4.383,4.383,0,0,1-1.569,3.34l-22.818,19.075a4.355,4.355,0,0,1-2.805,1.017,4.383,4.383,0,0,1-3.366-1.569,4.379,4.379,0,0,1,.552-6.171l13.543-11.326h-41.48a4.386,4.386,0,0,1-4.383-4.392,4.385,4.385,0,0,1,4.383-4.383h41.656l-13.754-11.72a4.387,4.387,0,0,1-.491-6.18,4.379,4.379,0,0,1,6.18-.491l22.809,19.443A4.391,4.391,0,0,1-198.764,417.612Z" fill="#13162a"/>
    </g>
    <g id="Grupo_31" data-name="Grupo 31" transform="translate(1317.255 3147.786) rotate(90)">
      <path id="Trazado_23-2" data-name="Trazado 23" d="M-198.764,417.612a4.383,4.383,0,0,1-1.569,3.34l-22.818,19.075a4.355,4.355,0,0,1-2.805,1.017,4.383,4.383,0,0,1-3.366-1.569,4.379,4.379,0,0,1,.552-6.171l13.543-11.326H-349.085a4.386,4.386,0,0,1-4.383-4.392,4.385,4.385,0,0,1,4.383-4.383h134.034l-13.754-11.72a4.387,4.387,0,0,1-.491-6.18,4.379,4.379,0,0,1,6.18-.491l22.809,19.443A4.391,4.391,0,0,1-198.764,417.612Z" transform="translate(69)" fill="#13162a"/>
    </g>
    <g id="Grupo_29" data-name="Grupo 29" transform="translate(862.78 2371.262)">
      <path id="Trazado_23-3" data-name="Trazado 23" d="M-198.764,417.612a4.383,4.383,0,0,1-1.569,3.34l-22.818,19.075a4.355,4.355,0,0,1-2.805,1.017,4.383,4.383,0,0,1-3.366-1.569,4.379,4.379,0,0,1,.552-6.171l13.543-11.326h-41.48a4.386,4.386,0,0,1-4.383-4.392,4.385,4.385,0,0,1,4.383-4.383h41.656l-13.754-11.72a4.387,4.387,0,0,1-.491-6.18,4.379,4.379,0,0,1,6.18-.491l22.809,19.443A4.391,4.391,0,0,1-198.764,417.612Z" fill="#13162a"/>
    </g>
    <g id="Grupo_30" data-name="Grupo 30" transform="translate(592.019 2371.262)">
      <path id="Trazado_23-4" data-name="Trazado 23" d="M-198.764,417.612a4.383,4.383,0,0,1-1.569,3.34l-22.818,19.075a4.355,4.355,0,0,1-2.805,1.017,4.383,4.383,0,0,1-3.366-1.569,4.379,4.379,0,0,1,.552-6.171l13.543-11.326h-41.48a4.386,4.386,0,0,1-4.383-4.392,4.385,4.385,0,0,1,4.383-4.383h41.656l-13.754-11.72a4.387,4.387,0,0,1-.491-6.18,4.379,4.379,0,0,1,6.18-.491l22.809,19.443A4.391,4.391,0,0,1-198.764,417.612Z" fill="#13162a"/>
    </g>
    <g id="Grupo_27" data-name="Grupo 27" transform="translate(1404.779 2371.262)">
      <path id="Trazado_23-5" data-name="Trazado 23" d="M-198.764,417.612a4.383,4.383,0,0,1-1.569,3.34l-22.818,19.075a4.355,4.355,0,0,1-2.805,1.017,4.383,4.383,0,0,1-3.366-1.569,4.379,4.379,0,0,1,.552-6.171l13.543-11.326h-41.48a4.386,4.386,0,0,1-4.383-4.392,4.385,4.385,0,0,1,4.383-4.383h41.656l-13.754-11.72a4.387,4.387,0,0,1-.491-6.18,4.379,4.379,0,0,1,6.18-.491l22.809,19.443A4.391,4.391,0,0,1-198.764,417.612Z" fill="#13162a"/>
    </g>
    <g id="Grupo_33" data-name="Grupo 33" transform="translate(1288.639 2712.097)">
      <path id="Trazado_23-6" data-name="Trazado 23" d="M-198.764,417.612a4.383,4.383,0,0,1-1.569,3.34l-22.818,19.075a4.355,4.355,0,0,1-2.805,1.017,4.383,4.383,0,0,1-3.366-1.569,4.379,4.379,0,0,1,.552-6.171l13.543-11.326h-41.48a4.386,4.386,0,0,1-4.383-4.392,4.385,4.385,0,0,1,4.383-4.383h41.656l-13.754-11.72a4.387,4.387,0,0,1-.491-6.18,4.379,4.379,0,0,1,6.18-.491l22.809,19.443A4.391,4.391,0,0,1-198.764,417.612Z" fill="#13162a"/>
    </g>
    <g id="Grupo_32" data-name="Grupo 32" transform="translate(339 315)">
      <g id="Rectángulo_19" data-name="Rectángulo 19" transform="translate(857 2743) rotate(90)" fill="#d44438" stroke="#141629" stroke-width="10">
        <rect width="143" height="52" rx="17" stroke="none"/>
        <rect x="5" y="5" width="133" height="42" rx="12" fill="none"/>
      </g>
      <g id="Rectángulo_18" data-name="Rectángulo 18" transform="translate(805 2743)" fill="#fff" stroke="#141629" stroke-width="10">
        <rect width="143" height="52" rx="17" stroke="none"/>
        <rect x="5" y="5" width="133" height="42" rx="12" fill="none"/>
      </g>
      <g id="Rectángulo_20" data-name="Rectángulo 20" transform="translate(874 2817)" fill="#d44438" stroke="#141629" stroke-width="10">
        <path d="M0,0H74a0,0,0,0,1,0,0V39A30,30,0,0,1,44,69H30A30,30,0,0,1,0,39V0A0,0,0,0,1,0,0Z" stroke="none"/>
        <path d="M5,5H69a0,0,0,0,1,0,0V39A25,25,0,0,1,44,64H30A25,25,0,0,1,5,39V5A0,0,0,0,1,5,5Z" fill="none"/>
      </g>
    </g>
  </g>
</svg>
